<svg width="28" height="28" viewBox="0 0 28 28" fill="none" xmlns="http://www.w3.org/2000/svg">
<path d="M8.292 15.708L13.292 20.708C13.3849 20.8011 13.4952 20.875 13.6167 20.9254C13.7382 20.9758 13.8685 21.0018 14 21.0018C14.1315 21.0018 14.2618 20.9758 14.3833 20.9254C14.5048 20.875 14.6151 20.8011 14.708 20.708L19.708 15.708C19.8958 15.5202 20.0013 15.2656 20.0013 15C20.0013 14.7344 19.8958 14.4798 19.708 14.292C19.5202 14.1042 19.2656 13.9987 19 13.9987C18.7344 13.9987 18.4798 14.1042 18.292 14.292L15 17.586V8C15 7.73478 14.8946 7.48043 14.7071 7.29289C14.5196 7.10536 14.2652 7 14 7C13.7348 7 13.4804 7.10536 13.2929 7.29289C13.1054 7.48043 13 7.73478 13 8V17.586L9.708 14.292C9.52023 14.1042 9.26555 13.9987 9 13.9987C8.73445 13.9987 8.47977 14.1042 8.292 14.292C8.10423 14.4798 7.99874 14.7344 7.99874 15C7.99874 15.2656 8.10423 15.5202 8.292 15.708ZM14 28C10.287 28 6.72601 26.525 4.1005 23.8995C1.475 21.274 0 17.713 0 14C0 10.287 1.475 6.72601 4.1005 4.1005C6.72601 1.475 10.287 0 14 0C17.713 0 21.274 1.475 23.8995 4.1005C26.525 6.72601 28 10.287 28 14C28 17.713 26.525 21.274 23.8995 23.8995C21.274 26.525 17.713 28 14 28ZM2 14C2 15.5759 2.31039 17.1363 2.91345 18.5922C3.5165 20.0481 4.40042 21.371 5.51472 22.4853C6.62902 23.5996 7.95189 24.4835 9.4078 25.0866C10.8637 25.6896 12.4241 26 14 26C15.5759 26 17.1363 25.6896 18.5922 25.0866C20.0481 24.4835 21.371 23.5996 22.4853 22.4853C23.5996 21.371 24.4835 20.0481 25.0866 18.5922C25.6896 17.1363 26 15.5759 26 14C26 10.8174 24.7357 7.76515 22.4853 5.51472C20.2348 3.26428 17.1826 2 14 2C10.8174 2 7.76515 3.26428 5.51472 5.51472C3.26428 7.76515 2 10.8174 2 14Z" fill="#2A373E"/>
</svg>
